<?xml version="1.0" encoding="UTF-8" standalone="no"?>
<!-- Created with Inkscape (http://www.inkscape.org/) -->

<svg
   width="210mm"
   height="297mm"
   viewBox="0 0 210 297"
   version="1.1"
   id="svg5"
   inkscape:version="1.2.2 (b0a8486, 2022-12-01)"
   sodipodi:docname="Bracket_single_shot.svg"
   xmlns:inkscape="http://www.inkscape.org/namespaces/inkscape"
   xmlns:sodipodi="http://sodipodi.sourceforge.net/DTD/sodipodi-0.dtd"
   xmlns="http://www.w3.org/2000/svg"
   xmlns:svg="http://www.w3.org/2000/svg">
  <sodipodi:namedview
     id="namedview7"
     pagecolor="#ffffff"
     bordercolor="#000000"
     borderopacity="0.25"
     inkscape:showpageshadow="2"
     inkscape:pageopacity="0.0"
     inkscape:pagecheckerboard="0"
     inkscape:deskcolor="#d1d1d1"
     inkscape:document-units="mm"
     showgrid="true"
     inkscape:zoom="0.70710678"
     inkscape:cx="357.08893"
     inkscape:cy="459.61941"
     inkscape:window-width="1470"
     inkscape:window-height="840"
     inkscape:window-x="0"
     inkscape:window-y="37"
     inkscape:window-maximized="0"
     inkscape:current-layer="layer1">
    <inkscape:grid
       type="xygrid"
       id="grid114" />
  </sodipodi:namedview>
  <defs
     id="defs2" />
  <g
     inkscape:label="Layer 1"
     inkscape:groupmode="layer"
     id="layer1">
    <path
       style="fill:#ffffff;stroke-width:0.264583;stroke:#000000;stroke-opacity:1"
       id="path2035"
       sodipodi:type="arc"
       sodipodi:cx="27.999632"
       sodipodi:cy="38.802223"
       sodipodi:rx="2.0999999"
       sodipodi:ry="2.0999999"
       sodipodi:start="0"
       sodipodi:end="6.280505"
       sodipodi:arc-type="slice"
       d="m 30.099632,38.802223 a 2.0999999,2.0999999 0 0 1 -2.098593,2.1 2.0999999,2.0999999 0 0 1 -2.101405,-2.097185 2.0999999,2.0999999 0 0 1 2.095776,-2.10281 2.0999999,2.0999999 0 0 1 2.104214,2.094367 l -2.099992,0.0056 z" />
    <path
       style="fill:#000000;fill-opacity:0;stroke-width:0.265;stroke-dasharray:none;stroke:#000000;stroke-opacity:1"
       d="m 20,70 h 10 v -3 h 10 v 3 h 10 v -3 h 10 v 3 H 70 V 52 H 67.5 V 43.5 35 H 62 c 0,0 -5.797548,6.598583 -16.951981,6.63677 C 33.992804,41.608811 27.975823,35.011693 27.975823,35.011693 L 22.5,35 V 52 H 20 Z"
       id="path1979"
       sodipodi:nodetypes="ccccccccccccccccccccc" />
    <path
       style="fill:#ffffff;stroke-width:0.264583;stroke:#000000;stroke-opacity:1"
       id="path2035-5"
       sodipodi:type="arc"
       sodipodi:cx="61.995251"
       sodipodi:cy="38.79818"
       sodipodi:rx="2.0999999"
       sodipodi:ry="2.0999999"
       sodipodi:start="0"
       sodipodi:end="6.280505"
       sodipodi:arc-type="slice"
       d="m 64.095251,38.79818 a 2.0999999,2.0999999 0 0 1 -2.098593,2.099999 2.0999999,2.0999999 0 0 1 -2.101405,-2.097185 2.0999999,2.0999999 0 0 1 2.095776,-2.10281 2.0999999,2.0999999 0 0 1 2.104214,2.094367 l -2.099992,0.0056 z" />
    <path
       style="fill:#ffffff;stroke-width:0.264583;stroke:#000000;stroke-opacity:1"
       id="path2035-3"
       sodipodi:type="arc"
       sodipodi:cx="80.753464"
       sodipodi:cy="38.593506"
       sodipodi:rx="2.0999999"
       sodipodi:ry="2.0999999"
       sodipodi:start="0"
       sodipodi:end="6.280505"
       sodipodi:arc-type="slice"
       d="m 82.853464,38.593506 a 2.0999999,2.0999999 0 0 1 -2.098593,2.099999 2.0999999,2.0999999 0 0 1 -2.101405,-2.097185 2.0999999,2.0999999 0 0 1 2.095776,-2.10281 2.0999999,2.0999999 0 0 1 2.104214,2.094367 l -2.099992,0.0056 z" />
    <path
       style="fill:#000000;fill-opacity:0;stroke-width:0.264583;stroke:#000000;stroke-opacity:1"
       d="m 72.753829,69.791282 h 10 v -3 h 10 v 3 h 10.000001 v -3 h 10 v 3 h 10 v -18 h -2.5 v -8.5 -8.5 h -5.5 c 0,0 -5.79755,6.598583 -16.951982,6.63677 -11.055215,-0.02796 -17.072196,-6.625077 -17.072196,-6.625077 l -5.475823,-0.01169 v 17 h -2.5 z"
       id="path1979-8"
       sodipodi:nodetypes="ccccccccccccccccccccc" />
    <path
       style="fill:#ffffff;stroke-width:0.264583;stroke:#000000;stroke-opacity:1"
       id="path2035-5-5"
       sodipodi:type="arc"
       sodipodi:cx="114.74908"
       sodipodi:cy="38.589462"
       sodipodi:rx="2.0999999"
       sodipodi:ry="2.0999999"
       sodipodi:start="0"
       sodipodi:end="6.280505"
       sodipodi:arc-type="slice"
       d="m 116.84908,38.589462 a 2.0999999,2.0999999 0 0 1 -2.0986,2.1 2.0999999,2.0999999 0 0 1 -2.1014,-2.097185 2.0999999,2.0999999 0 0 1 2.09578,-2.10281 2.0999999,2.0999999 0 0 1 2.10421,2.094367 l -2.09999,0.0056 z" />
    <path
       style="fill:#000000;fill-opacity:0;stroke-width:0.264583;stroke:#000000;stroke-opacity:1"
       d="m 20,80 h 10 v -3 h 10 v 3 h 10 v -3 h 10 v 3 h 10 v 90 H 60 v 3 H 50 v -3 l -10,0 0,3 H 30 v -3 H 20 Z"
       id="path2426"
       sodipodi:nodetypes="ccccccccccccccccccccc" />
    <circle
       style="fill:#000000;fill-opacity:0;stroke-width:0.264583;stroke:#000000;stroke-opacity:1"
       id="path2430"
       cx="45.01236"
       cy="124.99861"
       r="5.3499999" />
  </g>
</svg>
